# xmcd
#
# Track frame offsets: 
#        150
#        10146
#        22501
#        34312
#        44410
#        55855
#        65163
#        77657
#        89255
#        101469
#        115989
#        126375
#        138084
#        150124
#        160814
#        171428
#        181810
#        192562
#        202269
#        217470
#        230799
#        241562
#        252466
#        265291
#        275835
#        288833
#
# Disc length: 3993 seconds
#
# Revision: 3
# Processed by: cddbd v1.5.2PL0 Copyright (c) Steve Scherf et al.
# Submitted via: ExactAudioCopy v0.99pb4
#
DISCID=7b0f971a
DTITLE=Various Artist - As Good As It Gets: Bluegrass [CD2]
DYEAR=2000
DGENRE=Bluegrass
TTITLE0=The Cumberland Mountain Boys - I'm Going Down To Have Myself A
TTITLE0=Ball
TTITLE1=Bill Monroe and His Bluegrass Boys - Molly And Tenbrooks
TTITLE2=Lester Flatt and Earl Scruggs - My Cabin In Caroline
TTITLE3=Jim And Jesse - A Memory Of You
TTITLE4=Hylo Brown and The Timberliners - Lovesick And Sorrow
TTITLE5=The Green River Boys Feat. Glen Campbell - Truck Driving Man
TTITLE6=The Stanley Brothers - The Ramblers Blues
TTITLE7=Mac Wiseman - Pistol Packin' Preacher
TTITLE8=The Louvin Brothers - Weary Lonesome Blues
TTITLE9=Rose Maddox - I'll Meet You In Church Sunday Morning
TTITLE10=The Cumberland Mountain Boys - Whirlpool
TTITLE11=Bill Monroe and His Bluegrass Boys - Rocky Road Blues
TTITLE12=Lester Flatt and Earl Scruggs - God Loves His Children
TTITLE13=Jim And Jesse - Are You Lost In Sin
TTITLE14=Hylo Brown and The Timberliners - Flower Blooming In The Wildwo
TTITLE14=od
TTITLE15=The Stanley Brothers - Little Maggie
TTITLE16=Jimmie Skinner - Send Me A Penny Postcard
TTITLE17=The Cumberland Mountain Boys - All I Have Left Is Your Pictur
TTITLE17=e
TTITLE18=The Green River Boys Feat. Glen Campbell - Dark As Dungeon
TTITLE19=Bill Monroe and His Bluegrass Boys - My Rose Of Old Kentucky
TTITLE20=Rose Maddox - Down Down Down
TTITLE21=Jim And Jesse - I'll Wash Your Love From My Heart
TTITLE22=Hylo Brown and The Timberliners - Lost To A Stranger
TTITLE23=The Stanley Brothers - Death Is Only A Dream
TTITLE24=The Louvin Brothers - Browns Ferry Blues
TTITLE25=Rose Maddox - Ole Slewfoot
EXTD=
EXTT0=
EXTT1=
EXTT2=
EXTT3=
EXTT4=
EXTT5=
EXTT6=
EXTT7=
EXTT8=
EXTT9=
EXTT10=
EXTT11=
EXTT12=
EXTT13=
EXTT14=
EXTT15=
EXTT16=
EXTT17=
EXTT18=
EXTT19=
EXTT20=
EXTT21=
EXTT22=
EXTT23=
EXTT24=
EXTT25=
PLAYORDER=
